<?xml version="1.0" encoding="iso-8859-1"?>
<!-- Uploaded to: SVG Repo, www.svgrepo.com, Generator: SVG Repo Mixer Tools -->
<!DOCTYPE svg PUBLIC "-//W3C//DTD SVG 1.1//EN" "http://www.w3.org/Graphics/SVG/1.1/DTD/svg11.dtd">
<svg fill="#000000" version="1.1" id="Capa_1" xmlns="http://www.w3.org/2000/svg" xmlns:xlink="http://www.w3.org/1999/xlink" 
	 width="800px" height="800px" viewBox="0 0 512.517 512.517"
	 xml:space="preserve">
<g>
	<g>
		<path d="M422.296,119.48c-8.555-9.451-25.827-17.119-38.578-17.119H287.03c-12.736,0-31.512,5.974-41.917,13.35l-100.074,70.94
			C78.932,179.209,18.769,186.55,0,190.993c0,0,91.183,72.778,122.149,114.609c30.359,41.01,103.362,145.59,226.117,87.261
			c-41.285-70.506-153.593-125.367-173.521-134.647c-1.676-0.77-3.034-2.747-3.034-4.422c0-1.704,1.375-2.511,3.097-1.841
			c20.771,8.337,133.098,54.943,182.251,125.029c2.035-28.171-1.47-98.919-77.627-147.513
			c-29.064-18.533-62.938-30.049-96.976-36.956l73.378-50.638c10.482-7.25,26.299-5.811,35.316,3.208l69.843,69.85
			c9.017,9.007,26.649,16.312,39.409,16.312l99.796-17.163c12.75,0,16.157-7.675,7.598-17.128L422.296,119.48z"/>
		<polygon points="413.14,303.19 447.046,295.672 447.046,259.875 413.14,267.407 		"/>
		<polygon points="466.503,291.588 500.409,284.041 500.409,248.272 466.503,255.805 		"/>
		<polygon points="413.14,354.663 447.046,347.121 447.046,311.357 413.14,318.886 		"/>
		<polygon points="466.503,343.057 500.409,335.523 500.409,299.746 466.503,307.27 		"/>
	</g>
</g>
</svg>